<svg version="1.1" xmlns="http://www.w3.org/2000/svg" viewBox="0 35 550 400">
    <defs>
        <linearGradient x1="106.19585" y1="235" x2="443.80415" y2="235" gradientUnits="userSpaceOnUse"
                        id="color-16290515433">
            <stop offset="0" stop-color="#ed4264"></stop>
            <stop offset="1" stop-color="#ffedbc"></stop>
        </linearGradient>
    </defs>
    <g fill="url(#color-16290515433)" fill-rule="nonzero" stroke="none" stroke-width="1" stroke-linecap="butt"
       stroke-linejoin="miter" stroke-miterlimit="10" stroke-dasharray="" stroke-dashoffset="0" font-family="none"
       font-weight="none" font-size="none" text-anchor="none" style="mix-blend-mode: normal">
        <g data-paper-data="{&quot;isGlobalGroup&quot;:true,&quot;bounds&quot;:{&quot;x&quot;:106.1958530151546,&quot;y&quot;:149.55471629401373,&quot;width&quot;:337.60829396969075,&quot;height&quot;:170.89056741197257}}">
            <g data-paper-data="{&quot;isSecondaryText&quot;:true}">
                <path d="M139.01754,319.13397c0,0.20815 -0.0902,0.40241 -0.27059,0.58281c-0.18039,0.18039 -0.36772,0.27059 -0.56199,0.27059h-20.10682c-0.16652,0 -0.31222,-0.04857 -0.4371,-0.1457c-0.12489,-0.09713 -0.21508,-0.21855 -0.27059,-0.36425c-0.05551,-0.1457 -0.07632,-0.30181 -0.06244,-0.46833c0.01388,-0.16652 0.07632,-0.31222 0.18733,-0.4371l13.71676,-16.56835c0.56893,-0.74932 0.97134,-1.48824 1.20724,-2.21675c0.2359,-0.72851 0.32956,-1.42579 0.281,-2.09186c-0.04857,-0.66606 -0.21508,-1.28356 -0.49955,-1.85249c-0.28446,-0.56893 -0.65913,-1.06154 -1.12398,-1.47783c-0.46486,-0.41629 -0.9991,-0.74238 -1.60272,-0.97828c-0.60362,-0.2359 -1.2454,-0.35385 -1.92534,-0.35385c-0.8187,0 -1.55415,0.14917 -2.20634,0.44751c-0.65219,0.29834 -1.21765,0.673 -1.69638,1.12398c-0.47873,0.45098 -0.87074,0.92971 -1.17602,1.4362c-0.30528,0.50649 -0.51342,0.96787 -0.62444,1.38417c-0.05551,0.19427 -0.1908,0.39894 -0.40588,0.61403c-0.21508,0.21508 -0.46833,0.32262 -0.75973,0.32262h-2.51856c-0.2914,-0.02775 -0.53077,-0.13876 -0.7181,-0.33303c-0.18733,-0.19427 -0.24631,-0.40935 -0.17692,-0.64525c0.34691,-1.33213 0.87074,-2.50121 1.5715,-3.50725c0.70076,-1.00603 1.52293,-1.84208 2.46652,-2.50815c0.94359,-0.66606 1.98432,-1.16908 3.12218,-1.50905c1.13786,-0.33997 2.33123,-0.50996 3.5801,-0.50996c1.30438,0 2.48733,0.21161 3.54887,0.63484c1.06154,0.42323 1.98085,0.99563 2.75792,1.7172c0.77708,0.72157 1.39804,1.56109 1.8629,2.51856c0.46486,0.95747 0.74585,1.9635 0.84299,3.0181c0.09713,1.0546 0.00347,2.13349 -0.281,3.23666c-0.28446,1.10317 -0.79442,2.16124 -1.52987,3.17421l-8.49232,10.80273c-0.05551,0.06938 -0.09367,0.15264 -0.11448,0.24977c-0.02081,0.09713 -0.01735,0.19427 0.01041,0.2914c0.02775,0.09713 0.07632,0.17692 0.1457,0.23937c0.06938,0.06244 0.15958,0.09367 0.27059,0.09367h10.88599c0.26365,0 0.50302,0.07285 0.7181,0.21855c0.21508,0.1457 0.32262,0.35732 0.32262,0.63484z"
                      data-paper-data="{&quot;glyphName&quot;:&quot;2&quot;,&quot;glyphIndex&quot;:0,&quot;firstGlyphOfWord&quot;:true,&quot;word&quot;:1}"></path>
                <path d="M210.20259,289.3484c1.47089,0 2.77874,0.21855 3.92354,0.65566c1.1448,0.4371 2.13696,1.04419 2.97648,1.82127c0.83952,0.77708 1.54721,1.69291 2.12308,2.74752c0.57587,1.0546 1.04073,2.19593 1.39457,3.42399c0.35385,1.22806 0.60709,2.52202 0.75973,3.88191c0.15264,1.35988 0.22896,2.7267 0.22896,4.10046c0,1.13786 -0.0902,2.28613 -0.27059,3.4448c-0.18039,1.15867 -0.46139,2.27225 -0.84299,3.34073c-0.3816,1.06848 -0.87074,2.07104 -1.46742,3.0077c-0.59668,0.93665 -1.31825,1.75189 -2.16471,2.44571c-0.84646,0.69382 -1.8178,1.23846 -2.91403,1.63394c-1.09623,0.39548 -2.33816,0.59321 -3.7258,0.59321c-1.40151,0 -2.65385,-0.19774 -3.75702,-0.59321c-1.10317,-0.39548 -2.07798,-0.94012 -2.92444,-1.63394c-0.84646,-0.69382 -1.56803,-1.50905 -2.16471,-2.44571c-0.59668,-0.93665 -1.08929,-1.93922 -1.47783,-3.0077c-0.38854,-1.06848 -0.66953,-2.18205 -0.84299,-3.34073c-0.17345,-1.15867 -0.26018,-2.30694 -0.26018,-3.4448c0,-1.37376 0.06938,-2.74058 0.20815,-4.10046c0.13876,-1.35988 0.37813,-2.65385 0.7181,-3.88191c0.33997,-1.22806 0.79095,-2.36939 1.35294,-3.42399c0.56199,-1.0546 1.26622,-1.97044 2.11267,-2.74752c0.84646,-0.77708 1.84902,-1.38417 3.0077,-1.82127c1.15867,-0.4371 2.49427,-0.65566 4.00679,-0.65566zM210.22341,316.13668c1.12398,0 2.07451,-0.18386 2.85159,-0.55158c0.77708,-0.36772 1.41886,-0.86033 1.92534,-1.47783c0.50649,-0.6175 0.90196,-1.32866 1.18643,-2.13349c0.28446,-0.80483 0.49608,-1.64088 0.63484,-2.50815c0.13876,-0.86727 0.22202,-1.73801 0.24977,-2.61222c0.02775,-0.87421 0.04163,-1.68598 0.04163,-2.4353c0,-0.84646 -0.0451,-1.71373 -0.13529,-2.60181c-0.0902,-0.88809 -0.24284,-1.75536 -0.45792,-2.60181c-0.21508,-0.84646 -0.49608,-1.64435 -0.84299,-2.39367c-0.34691,-0.74932 -0.77708,-1.40498 -1.2905,-1.96697c-0.51342,-0.56199 -1.11358,-1.00603 -1.80046,-1.33213c-0.68688,-0.32609 -1.47436,-0.48914 -2.36245,-0.48914c-0.88809,0 -1.67557,0.16305 -2.36245,0.48914c-0.68688,0.32609 -1.28356,0.77014 -1.79005,1.33213c-0.50649,0.56199 -0.93318,1.21765 -1.28009,1.96697c-0.34691,0.74932 -0.6279,1.54721 -0.84299,2.39367c-0.21508,0.84646 -0.36772,1.71373 -0.45792,2.60181c-0.0902,0.88809 -0.13529,1.75536 -0.13529,2.60181c0,0.7632 0.03816,1.58537 0.11448,2.46652c0.07632,0.88115 0.20815,1.75536 0.39548,2.62263c0.18733,0.86727 0.44751,1.69985 0.78054,2.49774c0.33303,0.79789 0.75279,1.50211 1.25928,2.11267c0.50649,0.61056 1.11705,1.0997 1.83168,1.46742c0.71463,0.36772 1.54374,0.55158 2.48733,0.55158z"
                      data-paper-data="{&quot;glyphName&quot;:&quot;0&quot;,&quot;glyphIndex&quot;:1,&quot;word&quot;:1}"></path>
                <path d="M305.65182,319.13397c0,0.20815 -0.0902,0.40241 -0.27059,0.58281c-0.18039,0.18039 -0.36772,0.27059 -0.56199,0.27059h-20.10682c-0.16652,0 -0.31222,-0.04857 -0.4371,-0.1457c-0.12489,-0.09713 -0.21508,-0.21855 -0.27059,-0.36425c-0.05551,-0.1457 -0.07632,-0.30181 -0.06244,-0.46833c0.01388,-0.16652 0.07632,-0.31222 0.18733,-0.4371l13.71676,-16.56835c0.56893,-0.74932 0.97134,-1.48824 1.20724,-2.21675c0.2359,-0.72851 0.32956,-1.42579 0.281,-2.09186c-0.04857,-0.66606 -0.21508,-1.28356 -0.49955,-1.85249c-0.28446,-0.56893 -0.65913,-1.06154 -1.12398,-1.47783c-0.46486,-0.41629 -0.9991,-0.74238 -1.60272,-0.97828c-0.60362,-0.2359 -1.2454,-0.35385 -1.92534,-0.35385c-0.8187,0 -1.55415,0.14917 -2.20634,0.44751c-0.65219,0.29834 -1.21765,0.673 -1.69638,1.12398c-0.47873,0.45098 -0.87074,0.92971 -1.17602,1.4362c-0.30528,0.50649 -0.51342,0.96787 -0.62444,1.38417c-0.05551,0.19427 -0.1908,0.39894 -0.40588,0.61403c-0.21508,0.21508 -0.46833,0.32262 -0.75973,0.32262h-2.51856c-0.2914,-0.02775 -0.53077,-0.13876 -0.7181,-0.33303c-0.18733,-0.19427 -0.24631,-0.40935 -0.17692,-0.64525c0.34691,-1.33213 0.87074,-2.50121 1.5715,-3.50725c0.70076,-1.00603 1.52293,-1.84208 2.46652,-2.50815c0.94359,-0.66606 1.98432,-1.16908 3.12218,-1.50905c1.13786,-0.33997 2.33123,-0.50996 3.5801,-0.50996c1.30438,0 2.48733,0.21161 3.54887,0.63484c1.06154,0.42323 1.98085,0.99563 2.75792,1.7172c0.77708,0.72157 1.39804,1.56109 1.8629,2.51856c0.46486,0.95747 0.74585,1.9635 0.84299,3.0181c0.09713,1.0546 0.00347,2.13349 -0.281,3.23666c-0.28446,1.10317 -0.79442,2.16124 -1.52987,3.17421l-8.49232,10.80273c-0.05551,0.06938 -0.09367,0.15264 -0.11448,0.24977c-0.02081,0.09713 -0.01735,0.19427 0.01041,0.2914c0.02775,0.09713 0.07632,0.17692 0.1457,0.23937c0.06938,0.06244 0.15958,0.09367 0.27059,0.09367h10.88599c0.26365,0 0.50302,0.07285 0.7181,0.21855c0.21508,0.1457 0.32262,0.35732 0.32262,0.63484z"
                      data-paper-data="{&quot;glyphName&quot;:&quot;2&quot;,&quot;glyphIndex&quot;:2,&quot;word&quot;:1}"></path>
                <path d="M383.01303,304.37648c0.74932,0.30528 1.44314,0.67994 2.08145,1.12398c0.63831,0.44404 1.1899,0.96094 1.65475,1.55068c0.46486,0.58974 0.83258,1.25928 1.10317,2.0086c0.27059,0.74932 0.41282,1.5819 0.4267,2.49774c0,1.56803 -0.28446,2.91403 -0.85339,4.03802c-0.56893,1.12398 -1.34601,2.04329 -2.33123,2.75792c-0.98522,0.71463 -2.14043,1.24193 -3.46562,1.5819c-1.32519,0.33997 -2.75098,0.50996 -4.27738,0.50996c-1.31825,0 -2.60528,-0.1457 -3.86109,-0.4371c-1.25581,-0.2914 -2.40061,-0.75973 -3.43439,-1.40498c-1.03379,-0.64525 -1.908,-1.47783 -2.62263,-2.49774c-0.71463,-1.01991 -1.1899,-2.25837 -1.42579,-3.71539c0.02775,-0.22202 0.13529,-0.40935 0.32262,-0.56199c0.18733,-0.15264 0.37813,-0.22896 0.5724,-0.22896h3.20543c0.13876,0 0.26712,0.02428 0.38507,0.07285c0.11795,0.04857 0.21855,0.14223 0.30181,0.281c0.16652,0.48567 0.39548,0.97481 0.68688,1.46742c0.2914,0.49261 0.68688,0.94012 1.18643,1.34254c0.49955,0.40241 1.13439,0.73198 1.90453,0.98869c0.77014,0.25671 1.72414,0.38507 2.862,0.38507c1.11011,0 2.04329,-0.15958 2.79955,-0.47873c0.75626,-0.31916 1.36682,-0.73198 1.83168,-1.23846c0.46486,-0.50649 0.79789,-1.06501 0.9991,-1.67557c0.20121,-0.61056 0.30181,-1.20724 0.30181,-1.79005c0,-1.04073 -0.23937,-1.88718 -0.7181,-2.53937c-0.47873,-0.65219 -1.08929,-1.15867 -1.83168,-1.51946c-0.74238,-0.36078 -1.55762,-0.60709 -2.44571,-0.73892c-0.88809,-0.13183 -1.74148,-0.19774 -2.56018,-0.19774h-1.60272c-0.22202,0 -0.4267,-0.08326 -0.61403,-0.24977c-0.18733,-0.16652 -0.27406,-0.36772 -0.26018,-0.60362l0.06244,-2.56018c0.01388,-0.20815 0.10407,-0.40241 0.27059,-0.58281c0.16652,-0.18039 0.34691,-0.27059 0.54118,-0.27059h1.79005c0.83258,0 1.66169,-0.07632 2.48733,-0.22896c0.82564,-0.15264 1.5715,-0.39894 2.23756,-0.73892c0.66606,-0.33997 1.20724,-0.79442 1.62353,-1.36335c0.41629,-0.56893 0.62444,-1.26969 0.62444,-2.10227c0,-0.62444 -0.13529,-1.19683 -0.40588,-1.7172c-0.27059,-0.52036 -0.65566,-0.96787 -1.15521,-1.34254c-0.49955,-0.37466 -1.10664,-0.6626 -1.82127,-0.8638c-0.71463,-0.20121 -1.51599,-0.30181 -2.40408,-0.30181c-0.61056,0 -1.22806,0.10754 -1.85249,0.32262c-0.62444,0.21508 -1.19683,0.52036 -1.7172,0.91584c-0.52036,0.39548 -0.96441,0.88115 -1.33213,1.45702c-0.36772,0.57587 -0.59321,1.21765 -0.67647,1.92534c-0.02775,0.19427 -0.11795,0.36078 -0.27059,0.49955c-0.15264,0.13876 -0.32609,0.20815 -0.52036,0.20815h-2.8724c-0.24977,0 -0.46833,-0.07979 -0.65566,-0.23937c-0.18733,-0.15958 -0.26712,-0.35732 -0.23937,-0.59321c0.13876,-1.17949 0.49608,-2.26878 1.07195,-3.26788c0.57587,-0.9991 1.32172,-1.8629 2.23756,-2.59141c0.91584,-0.72851 1.97738,-1.29744 3.18462,-1.70679c1.20724,-0.40935 2.51856,-0.61403 3.93394,-0.61403c1.49864,0 2.84118,0.20121 4.02761,0.60362c1.18643,0.40241 2.18899,0.954 3.0077,1.65475c0.8187,0.70076 1.44314,1.52987 1.87331,2.48733c0.43017,0.95747 0.64525,1.99819 0.64525,3.12218c0,0.55505 -0.07285,1.12398 -0.21855,1.70679c-0.1457,0.58281 -0.3816,1.15174 -0.70769,1.70679c-0.32609,0.55505 -0.74585,1.07889 -1.25928,1.5715c-0.51342,0.49261 -1.13786,0.91931 -1.87331,1.28009c-0.08326,0.04163 -0.1457,0.10754 -0.18733,0.19774c-0.04163,0.0902 -0.05551,0.18039 -0.04163,0.27059c0.01388,0.0902 0.04163,0.17692 0.08326,0.26018c0.04163,0.08326 0.10407,0.13876 0.18733,0.16652z"
                      data-paper-data="{&quot;glyphName&quot;:&quot;3&quot;,&quot;glyphIndex&quot;:3,&quot;lastGlyphOfWord&quot;:true,&quot;word&quot;:1}"></path>
            </g>
            <g data-paper-data="{&quot;isPrimaryText&quot;:true}">
                <path d="M165.9826,249.2402c-0.43598,-0.89117 -0.98356,-1.71435 -1.65674,-2.43943c-3.26469,-3.51538 -9.5553,-4.43458 -13.93798,-2.84894c-6.03474,2.18303 -11.35062,6.97522 -16.80872,10.2508c-2.80223,1.68165 -5.47004,3.47697 -7.84148,5.33976c-4.84253,-28.75882 -10.09769,-87.43961 -10.63852,-105.56303c-0.07266,-2.41244 -2.05068,-4.31935 -4.44807,-4.31935c-0.04464,0 -0.08979,0.00052 -0.13547,0.00208c-2.45812,0.07318 -4.39046,2.12542 -4.31779,4.58302c0.59169,19.80455 6.75982,87.54238 11.95892,113.33755c0.42612,2.11348 2.2832,3.57351 4.35983,3.57351c0.29169,0 0.58754,-0.02855 0.88391,-0.08875c0.31349,-0.06332 0.61141,-0.15882 0.89325,-0.28131c8.25877,-2.44774 16.95613,-1.9095 25.45988,-1.93649c4.42575,-0.01401 9.98921,0.50086 13.87518,-2.19653c4.86226,-3.37368 4.67696,-12.66428 2.35379,-17.41287z"
                      data-paper-data="{&quot;glyphName&quot;:&quot;L&quot;,&quot;glyphIndex&quot;:0,&quot;firstGlyphOfWord&quot;:true,&quot;word&quot;:1}"></path>
                <path d="M208.66808,241.16736c-7.68058,-23.51353 -13.3494,-48.38379 -10.78955,-64.29356c2.55985,-15.90977 6.33162,-27.29361 2.83441,-27.29361c-8.50324,-1.23425 -16.73243,42.65424 -18.37826,69.81082c-1.64584,27.15659 2.37715,51.66093 15.54385,51.66093c13.1667,0 18.47013,-6.37107 10.78955,-29.8846z"
                      data-paper-data="{&quot;glyphName&quot;:&quot;I&quot;,&quot;glyphIndex&quot;:1,&quot;word&quot;:1}"></path>
                <path d="M315.36559,207.37968c-1.19325,-9.72399 -2.55518,-19.43656 -4.35361,-29.06868c-1.60068,-8.57175 -2.87645,-18.72964 -7.72158,-26.16576c-0.50346,-0.77231 -1.06401,-1.53995 -1.84359,-2.03303c-2.89306,-1.82854 -8.12434,1.89757 -10.42104,3.49358c-3.82056,2.65586 -7.14702,5.67609 -9.59631,9.5989c-3.18164,5.09582 -6.64875,10.11741 -9.53299,15.3679c-0.56522,1.02871 -1.25812,2.06366 -2.31331,2.57957c-2.61746,1.27992 -4.30378,-1.98009 -5.45031,-3.74738c-1.89912,-2.9268 -3.90153,-5.80689 -6.06536,-8.54943c-4.62039,-5.85567 -9.94925,-11.15236 -15.83918,-15.72914c-2.91849,-2.26763 -6.70584,-4.45637 -10.10911,-3.01503c-3.60724,1.5275 -4.52956,6.12661 -4.90741,10.02555c-3.01452,31.09133 -2.88528,62.48682 0.38564,93.5522c0.38512,3.65603 0.83304,7.38006 2.37871,10.71533c1.54567,3.33527 4.39149,6.27505 7.99615,6.99598c5.19132,1.03806 10.35409,-2.89566 12.48107,-7.7439c2.12698,-4.84824 1.92715,-10.36032 1.58044,-15.64299c-1.88044,-28.66747 -6.94408,-57.01886 -11.99837,-85.29966c0.14896,0.83252 3.27247,2.99272 3.9498,3.7396c1.28563,1.41798 2.46953,2.9242 3.61088,4.45897c2.29151,3.08251 4.39098,6.30619 6.76346,9.32849c4.1626,5.30239 11.87744,12.9456 19.27151,9.33005c0.39498,-0.19308 0.77698,-0.41315 1.14082,-0.65968c2.66832,-1.80622 4.08579,-4.53579 5.81831,-7.13093c1.96089,-2.93718 3.56312,-6.08924 5.34702,-9.14423c0.03633,-0.06228 0.07266,-0.12976 0.10899,-0.19204c1.99826,-3.62801 5.55879,-7.47919 9.19199,-10.08471c-3.09341,22.87876 -2.16954,70.34906 0.00519,87.7884c2.89098,23.10713 8.47573,20.88569 14.63659,20.88569c17.90595,0 7.50982,-47.15889 5.48561,-63.6536z"
                      data-paper-data="{&quot;glyphName&quot;:&quot;M&quot;,&quot;glyphIndex&quot;:2,&quot;word&quot;:1}"></path>
                <path d="M355.19036,241.16736c-7.68058,-23.51353 -13.3494,-48.38379 -10.78955,-64.29356c2.55985,-15.90977 6.33162,-27.29361 2.83441,-27.29361c-8.50324,-1.23425 -16.73243,42.65424 -18.37826,69.81082c-1.64584,27.15659 2.37715,51.66093 15.54385,51.66093c13.1667,0 18.47013,-6.37107 10.78955,-29.8846z"
                      data-paper-data="{&quot;glyphName&quot;:&quot;I&quot;,&quot;glyphIndex&quot;:3,&quot;word&quot;:1}"></path>
                <path d="M439.91144,149.65689c-9.90824,0 -16.44281,0.55536 -26.56385,1.33909c-1.5467,0.11938 -3.07784,0.24395 -4.5934,0.36851c-21.71094,1.84255 -36.62262,4.52073 -36.89251,4.56226c-2.12802,0.3218 -3.59167,2.29929 -3.27507,4.42731c0.29066,1.93078 1.95154,3.31659 3.846,3.31659c0.19204,0 0.38927,-0.01557 0.58131,-0.04152c0.24913,-0.03633 12.30096,-2.2941 31.4531,-4.06918c-5.35637,14.31479 -9.65392,41.13297 -10.79059,59.93216c-1.64532,27.15555 2.37715,51.66405 15.54489,51.66405c13.16774,0 18.46702,-6.37366 10.7854,-29.88563c-7.67642,-23.51716 -13.3494,-48.38379 -10.7854,-64.29719c1.15224,-7.16778 2.55362,-13.41687 3.42039,-18.11927c10.31828,-0.82007 17.1383,-1.41176 27.26973,-1.41176c2.14878,0 3.89271,-1.74393 3.89271,-3.89271c0,-2.14878 -1.74393,-3.89271 -3.89271,-3.89271z"
                      data-paper-data="{&quot;glyphName&quot;:&quot;T&quot;,&quot;glyphIndex&quot;:4,&quot;lastGlyphOfWord&quot;:true,&quot;word&quot;:1}"></path>
            </g>
        </g>
    </g>
</svg>
